# xmcd
#
# Track frame offsets: 
#        150
#        14914
#        16803
#        30337
#        47787
#        53793
#        73720
#        77681
#        92406
#        93733
#        104802
#        107569
#        125194
#        125751
#        137748
#        151860
#        156252
#        169399
#        171115
#        186721
#        191071
#        207637
#        227545
#        249886
#        250384
#
# Disc length: 3538 seconds
#
# Revision: 0
# Processed by: cddbd v1.5.2PL0 Copyright (c) Steve Scherf et al.
# Submitted via: ExactAudioCopy v0.99pb5
#
DISCID=6b0dd019
DTITLE=Sunnyland Slim - Travelin'
DYEAR=2002
DGENRE=Blues
TTITLE0=Miss Bessie Mae
TTITLE1=Monologue
TTITLE2=Throw This Old Dog A Bone
TTITLE3=I Make Love
TTITLE4=Monologue
TTITLE5=Goin' Down Slow
TTITLE6=Monologue
TTITLE7=Canadian Walk
TTITLE8=Monologue
TTITLE9=How Long Blues
TTITLE10=Monologue
TTITLE11=Travelin'
TTITLE12=Monologue
TTITLE13=For You My Love
TTITLE14=Prison Bound Blues
TTITLE15=Monologue
TTITLE16=Levee Camp Blues
TTITLE17=Monologue
TTITLE18=Dust My Broom
TTITLE19=Monologue
TTITLE20=One Room Country Shack
TTITLE21=Sad And Lonesome Blues
TTITLE22=Blue Shadow
TTITLE23=Monologue
TTITLE24=Harlem Can't Be Heaven
EXTD=
EXTT0=
EXTT1=
EXTT2=
EXTT3=
EXTT4=
EXTT5=
EXTT6=
EXTT7=
EXTT8=
EXTT9=
EXTT10=
EXTT11=
EXTT12=
EXTT13=
EXTT14=
EXTT15=
EXTT16=
EXTT17=
EXTT18=
EXTT19=
EXTT20=
EXTT21=
EXTT22=
EXTT23=
EXTT24=
PLAYORDER=
